<?xml version="1.0" encoding="UTF-8" standalone="no"?>
<!-- Generator: Gravit.io -->
<svg xmlns="http://www.w3.org/2000/svg" xmlns:xlink="http://www.w3.org/1999/xlink" style="isolation:isolate" viewBox="0 0 117 40" width="117pt" height="40pt"><defs><clipPath id="_clipPath_0HCq1iSKaBp3ktj3bOX9IG4PUg6hObOM"><rect width="117" height="40"/></clipPath></defs><g clip-path="url(#_clipPath_0HCq1iSKaBp3ktj3bOX9IG4PUg6hObOM)"><g clip-path="url(#_clipPath_2OuPjMheCiiBbkzXoT60ncn48sCvS8fY)"><text transform="matrix(1,0,0,1,1,37.4)" style="font-family:'Montserrat';font-weight:900;font-size:50px;font-style:normal;fill:#000;stroke:none;">TJ</text></g><defs><clipPath id="_clipPath_2OuPjMheCiiBbkzXoT60ncn48sCvS8fY"><rect x="0" y="0" width="62" height="59" transform="matrix(1,0,0,1,1,-11)"/></clipPath></defs><g clip-path="url(#_clipPath_6jlOiZR4mYcpp7xBNfTtd9qxAXCyhv8e)"><text transform="matrix(1,0,0,1,61,19.648)" style="font-family:'Montserrat';font-weight:900;font-size:11px;font-style:normal;fill:#000;stroke:none;">FITNESS</text><text transform="matrix(1,0,0,1,61,33.057)" style="font-family:'Montserrat';font-weight:900;font-size:11px;font-style:normal;fill:#000;stroke:none;">FASHION</text></g><defs><clipPath id="_clipPath_6jlOiZR4mYcpp7xBNfTtd9qxAXCyhv8e"><rect x="0" y="0" width="63" height="29" transform="matrix(1,0,0,1,61,9)"/></clipPath></defs><g><path d=" M 89.916 1.488 L 83 6.512 L 100.084 6.512 L 107 1.488 L 89.916 1.488 Z " fill-rule="evenodd" fill="#0fa3b1ff"/><mask id="_mask_2aLZjEaK1t1sWg84nTU0BkCTouQepmA9" x="-200%" y="-200%" width="400%" height="400%"><rect x="-200%" y="-200%" width="400%" height="400%" style="fill:white;"/><path d=" M 73.819 4 L 68 8 L 88.181 8 L 94 4 L 73.819 4 Z " fill-rule="evenodd" fill="black" stroke="none"/></mask><path d=" M 73.819 4 L 68 8 L 88.181 8 L 94 4 L 73.819 4 Z " fill-rule="evenodd" fill="none"/><path d=" M 73.819 4 L 68 8 L 88.181 8 L 94 4 L 73.819 4 Z " fill-rule="evenodd" fill="none" mask="url(#_mask_2aLZjEaK1t1sWg84nTU0BkCTouQepmA9)" vector-effect="non-scaling-stroke" stroke-width="2.436" stroke="rgb(40,35,74)" stroke-linejoin="round" stroke-linecap="round" stroke-miterlimit="4"/></g></g></svg>