<?xml version="1.0" encoding="UTF-8" standalone="no"?>
<!-- Generator: Gravit.io -->
<svg xmlns="http://www.w3.org/2000/svg" xmlns:xlink="http://www.w3.org/1999/xlink" style="isolation:isolate" viewBox="0 0 40 36" width="40pt" height="36pt"><defs><clipPath id="_clipPath_H3Pb1gDdMj7uUxjQ4V3IRXKcJows2Y79"><rect width="40" height="36"/></clipPath></defs><g clip-path="url(#_clipPath_H3Pb1gDdMj7uUxjQ4V3IRXKcJows2Y79)"><path d=" M 21.903 0 L 14.943 7.251 L 32.135 7.251 L 39.095 0 L 21.903 0 L 21.903 0 Z " fill-rule="evenodd" fill="#ff9b42ff"/><mask id="_mask_IcslT07ue5VxaxZsDfJgvEVeqSqKgYxe" x="-200%" y="-200%" width="400%" height="400%"><rect x="-200%" y="-200%" width="400%" height="400%" style="fill:white;"/><path d=" M 7.52 3 L 1 9.501 L 23.611 9.501 L 30.131 3 L 7.52 3 L 7.52 3 Z " fill-rule="evenodd" fill="black" stroke="none"/></mask><path d=" M 7.52 3 L 1 9.501 L 23.611 9.501 L 30.131 3 L 7.52 3 L 7.52 3 Z " fill-rule="evenodd" fill="none"/><path d=" M 7.52 3 L 1 9.501 L 23.611 9.501 L 30.131 3 L 7.52 3 L 7.52 3 Z " fill-rule="evenodd" fill="none" mask="url(#_mask_IcslT07ue5VxaxZsDfJgvEVeqSqKgYxe)" vector-effect="non-scaling-stroke" stroke-width="2.436" stroke="rgb(40,35,74)" stroke-linejoin="round" stroke-linecap="round" stroke-miterlimit="4"/><g clip-path="url(#_clipPath_M1V21vuXPncxJocChua3YJMN67Znumfg)"><text transform="matrix(1,0,0,1,1,34.602)" style="font-family:'Montserrat';font-weight:900;font-size:32px;font-style:normal;fill:#28234a;stroke:none;">TJ</text></g><defs><clipPath id="_clipPath_M1V21vuXPncxJocChua3YJMN67Znumfg"><rect x="0" y="0" width="39" height="39.008" transform="matrix(1,0,0,1,1,3.626)"/></clipPath></defs></g></svg>